<svg width="363" height="593" viewBox="0 0 363 593" fill="none" xmlns="http://www.w3.org/2000/svg">
<path d="M236.925 583.431C222.068 575.417 210.233 556.084 204.124 540.351C204.517 539.737 199.066 518.817 251.602 478.351C267.964 465.751 306.42 439.951 326.869 443.484C339.562 445.684 350.442 454.457 356.717 467.564C367.05 489.151 363.809 518.031 347.821 546.804C320.546 595.911 268.958 600.724 236.925 583.431Z" fill="black"/>
<path d="M210.24 539.217C210.24 539.217 221.272 568.044 239.83 578.057C265.108 591.684 314.733 593.777 342.473 543.844C370.216 493.911 352.648 454.137 325.829 449.524C299.013 444.897 210.24 508.697 210.24 539.217Z" fill="#BCBCD1"/>
<path d="M274.596 586.404C261.282 586.404 248.965 582.977 239.83 578.057C248.965 582.977 261.285 586.404 274.597 586.404C277.582 586.404 280.616 586.231 283.678 585.871C280.616 586.231 277.582 586.404 274.596 586.404ZM283.685 585.871C283.725 585.857 283.765 585.857 283.805 585.844C283.764 585.857 283.725 585.857 283.685 585.871ZM283.84 585.844C283.874 585.844 283.905 585.844 283.94 585.831C283.906 585.844 283.873 585.844 283.84 585.844ZM284.168 585.804C284.185 585.804 284.202 585.804 284.221 585.804C284.202 585.804 284.186 585.804 284.168 585.804ZM284.345 585.777C284.352 585.777 284.358 585.777 284.365 585.777C284.358 585.777 284.353 585.777 284.345 585.777ZM284.518 585.764C285.645 585.617 286.772 585.444 287.904 585.244C286.916 585.577 285.793 585.764 284.518 585.764Z" fill="black"/>
<path d="M274.597 586.404C261.285 586.404 248.965 582.977 239.83 578.057C233.034 574.391 227.246 568.204 222.641 561.831C227.108 562.271 231.402 562.497 235.51 562.497C259.965 562.497 277.57 554.537 290.604 542.604C290.638 545.951 290.957 549.084 291.612 551.937C294.18 563.151 297.652 581.884 287.904 585.244C286.772 585.444 285.645 585.617 284.518 585.764C284.468 585.764 284.416 585.777 284.365 585.777C284.358 585.777 284.352 585.777 284.345 585.777C284.305 585.791 284.262 585.791 284.221 585.804C284.202 585.804 284.185 585.804 284.168 585.804C284.137 585.804 284.106 585.817 284.077 585.817C284.052 585.817 284.025 585.817 284 585.831C283.98 585.831 283.961 585.831 283.94 585.831C283.905 585.844 283.874 585.844 283.84 585.844C283.829 585.844 283.816 585.844 283.805 585.844C283.765 585.857 283.725 585.857 283.685 585.871C283.684 585.871 283.68 585.871 283.678 585.871C280.616 586.231 277.582 586.404 274.597 586.404Z" fill="#9494B3"/>
<path d="M235.51 562.497C222.932 562.497 208.612 560.391 192.949 556.217C155.561 546.284 144.648 526.484 135.021 509.017C125.109 491.044 116.549 475.511 78.3782 471.724C-42.3071 459.764 -1.88708 377.044 55.4809 377.044C73.5596 377.044 90.9436 383.831 101.764 389.124C99.9743 375.497 97.3809 352.137 96.7382 327.177C96.2782 309.364 103.945 297.351 100.982 279.617C96.9449 255.444 92.2036 223.351 100.349 199.204C99.3622 187.657 105.932 163.591 108.049 156.217C113.952 135.697 127.396 129.471 136.033 129.471C141.376 129.471 149.825 130.524 152.296 138.937C169.698 68.8707 212.817 67.1774 228.088 85.1774C242.99 102.751 235.41 137.124 232.918 166.537C240.4 155.737 250.746 147.417 263.517 150.871C294.746 159.311 270.016 242.644 289.22 305.324C307.54 365.124 341.652 429.711 322.385 487.511C310.749 522.431 290.357 562.497 235.51 562.497Z" fill="black"/>
<path d="M109.564 400.404C109.564 400.404 103.854 365.924 102.853 327.017C102.421 310.284 110.201 297.684 107.014 278.617C102.286 250.297 100.652 234.484 103.433 210.537C103.796 207.417 106.626 200.071 106.569 199.711C105.422 192.777 109.126 174.617 113.926 157.911C120.184 136.151 133.125 134.751 142.985 137.951C152.402 141.017 152.52 177.577 152.52 177.577C152.52 177.577 163.08 78.7238 204.365 80.8305C241.022 82.6972 229.973 128.604 227.3 160.377C224.801 190.071 223.732 201.631 223.732 201.631C223.732 201.631 237.958 150.297 261.921 156.777C285.885 163.244 264.954 247.004 283.37 307.111C301.788 367.217 335.077 430.097 316.582 485.577C298.088 541.071 267.572 569.737 194.518 550.311C121.466 530.897 158.12 473.484 78.981 465.644C-20.2057 455.817 0.376953 402.311 33.6676 387.511C66.957 372.711 109.564 400.404 109.564 400.404Z" fill="#BCBCD1"/>
<path d="M235.512 556.377C279.433 556.377 301.486 529.937 316.066 487.111C301.485 529.937 279.44 556.377 235.512 556.377ZM78.981 465.644C78.8996 465.631 78.817 465.631 78.7356 465.617C78.8196 465.631 78.897 465.631 78.981 465.644Z" fill="black"/>
<path d="M235.512 556.377C235.509 556.377 235.501 556.377 235.498 556.377C223.552 556.377 209.99 554.431 194.518 550.311C121.466 530.897 158.12 473.484 78.9809 465.644C78.8969 465.631 78.8195 465.63 78.7355 465.617C78.6862 465.617 78.6395 465.604 78.5915 465.604C78.5609 465.604 78.5302 465.604 78.5009 465.59C78.4382 465.59 78.3769 465.577 78.3142 465.577H78.3115C40.6342 461.751 20.3956 451.577 11.6262 439.644C23.8142 448.937 44.1422 449.284 58.8355 449.284C60.0075 449.284 61.1435 449.284 62.2369 449.284C110.11 449.284 118.093 464.737 118.093 464.737C118.093 464.737 141.806 528.177 200.601 533.204C208.03 533.83 215.018 534.137 221.597 534.137C280.736 534.137 306.532 509.671 317.532 482.577C317.232 483.577 316.916 484.577 316.582 485.577C316.538 485.711 316.495 485.844 316.451 485.977C316.415 486.084 316.377 486.204 316.341 486.311C316.332 486.337 316.324 486.364 316.314 486.39C316.232 486.63 316.149 486.871 316.066 487.111C301.486 529.937 279.433 556.377 235.512 556.377Z" fill="#9494B3"/>
<path d="M200.601 187.51C186.316 174.444 168.85 178.11 152.362 184.497C152.028 184.164 150.33 181.15 150.33 181.15C144.968 174.164 183.642 165.817 200.601 187.51Z" fill="black"/>
<path d="M196.937 273.351C166.364 261.244 152.31 283.884 155.689 279.711C153.45 283.098 151.682 271.951 154.784 269.324C164.992 260.724 179.24 261.644 196.937 273.351Z" fill="black"/>
<path d="M146.834 278.79C143.088 272.79 117.813 272.911 105.358 287.777C103.657 288.617 103.638 286.697 103.16 286.204C102.106 285.111 102.469 283.657 103.557 282.364C114.984 268.724 143.108 270.457 146.834 278.79Z" fill="black"/>
<path d="M129.496 201.524C124.57 197.364 109.777 200.391 105.104 203.924C101.353 206.751 101.134 198.671 105.741 197.071C111.12 195.204 125.565 195.324 129.496 201.524Z" fill="black"/>
<path d="M257.628 270.457C258.829 272.031 259.892 273.817 260.132 275.777C256.532 271.884 251.261 270.151 246.177 268.591C227.229 263.924 222.152 277.391 218.645 271.551C214.784 265.137 242.95 251.364 257.628 270.457Z" fill="black"/>
<path d="M146.834 469.204C146.834 469.204 169.196 512.191 188.309 517.844C207.422 523.497 200.542 453.151 188.309 434.044C176.077 414.924 143.585 453.151 146.834 469.204Z" fill="#C9C9DA"/>
<path d="M236.338 443.217C230.504 459.204 229.265 505.137 246.632 510.497C263.997 515.844 306.572 476.857 299.428 433.271C292.285 389.697 242.757 425.631 236.338 443.217Z" fill="#C9C9DA"/>
<path d="M49.9302 390.457C49.9302 390.457 19.7316 416.071 37.6982 434.044C55.6636 452.004 98.8596 371.351 49.9302 390.457Z" fill="#C9C9DA"/>
<path d="M167.346 202.071C160.625 204.511 153.493 210.911 153.493 220.457C153.493 230.004 152.825 258.471 167.346 255.644C181.866 252.817 184.486 195.884 167.346 202.071Z" fill="#C9C9DA"/>
<path d="M186.59 98.0308C186.59 98.0308 173.069 104.151 165.424 120.964C157.778 137.791 185.032 155.204 193.277 146.964C201.521 138.724 223.046 78.1508 186.59 98.0308Z" fill="#C9C9DA"/>
<path d="M249.281 177.804C249.281 177.804 237.014 185.204 234.328 197.217C231.642 209.244 227.945 235.137 230.998 238.191C234.052 241.244 252.433 247.951 252.433 227.231C252.433 206.511 260.529 174.524 249.281 177.804Z" fill="#C9C9DA"/>
<path d="M229.849 277.244C229.849 277.244 229.656 310.95 240.141 329.297C250.628 347.657 281.708 346.884 273.43 329.297C265.153 311.71 261.682 277.244 252.332 277.244C242.981 277.244 229.849 277.244 229.849 277.244Z" fill="#C9C9DA"/>
<path d="M224.612 344.604C224.34 344.004 219.504 331.391 217.037 310.364C215.484 297.137 219.69 281.457 217.109 271.311C209.778 242.471 226.181 176.577 226.882 173.791C227.869 169.871 233.801 171.364 232.814 175.284C232.646 175.951 216.086 242.457 223.038 269.804C225.95 281.257 221.653 297.231 223.11 309.657C225.47 329.764 232.388 345.417 232.452 345.551C233.14 347.097 225.118 345.751 224.612 344.604Z" fill="black"/>
<path d="M158.46 349.804C149.402 323.017 146.298 327.337 151.901 272.63C133.612 224.27 145.864 188.071 147.793 182.951C147.793 182.951 150.209 154.55 148.405 145.324C147.008 138.15 154.177 142.137 154.16 145.057L153.902 184.137C146.301 203.524 145.072 237.724 157.874 271.137L158.136 271.817C157.08 281.937 154.444 310.497 155.56 320.537C156.153 325.884 160.732 342.124 162.552 347.511C163.093 349.111 158.89 351.071 158.46 349.804Z" fill="black"/>
<path d="M239.508 410.311C236.064 418.604 233.137 426.924 230.604 435.337C228.156 443.777 226.113 452.271 224.78 460.871C223.429 469.471 222.739 478.151 222.818 486.884C222.861 495.631 223.896 504.351 225.353 513.231C221.465 505.124 219.006 496.231 218.054 487.191C216.982 478.137 217.33 468.924 218.74 459.924C220.157 450.924 222.661 442.124 226.122 433.751C229.582 425.404 233.864 417.351 239.508 410.311Z" fill="black"/>
<path d="M154.393 353.897C157.098 348.257 166.03 343.737 173.146 346.151C162.08 350.617 176.889 343.751 154.393 353.897Z" fill="black"/>
<path d="M217.73 345.284C226.993 342.097 241.794 344.097 250.713 352.43C241.141 349.337 237.518 347.364 217.73 345.284Z" fill="black"/>
<path d="M261.325 5.04413C281.578 18.4575 299.38 61.4308 286.284 108.004C298.83 53.7375 270.424 4.4308 245.137 6.1108C241.028 6.3908 240.71 0.0841568 244.877 0.00415683C245.044 0.0308235 253.005 -0.515869 261.325 5.04413Z" fill="black"/>
<path d="M349.416 213.737C346.014 233.097 338.836 250.404 325.082 268.244C332.813 257.391 339.033 245.444 342.965 232.777C344.932 226.444 346.25 219.951 347.145 213.417C351.268 179.071 338.64 142.377 322.597 120.204C322.564 120.057 320.805 117.617 323.229 115.871C324.598 114.871 326.51 115.177 327.501 116.551C342.333 137.071 355.144 177.737 349.416 213.737Z" fill="black"/>
</svg>
