<svg width="367" height="288" viewBox="0 0 367 288" fill="none" xmlns="http://www.w3.org/2000/svg">
<path d="M298.437 112.438C298.437 112.438 355.674 111.92 363.092 158.589C370.509 205.257 331.693 296.878 260.292 273.038C177.64 245.449 262.407 112.438 298.437 112.438Z" fill="#BCBCD1"/>
<path d="M283.026 276.929C276.479 276.929 269.578 275.906 262.337 273.696C261.655 273.485 260.973 273.261 260.292 273.038C255.825 271.545 251.851 269.747 248.337 267.689C270.107 256.134 278.653 233.082 278.653 233.082C301.341 233.082 326.874 179.184 321.196 150.818C319.174 140.709 314.989 127.237 308.559 113.225C314.143 113.977 321.443 115.458 328.907 118.362C336.924 132.727 343.942 151.112 343.942 171.472C343.942 207.855 328.049 250.562 302.035 273.884C296.087 275.848 289.739 276.929 283.026 276.929Z" fill="#9494B3"/>
<path d="M261.22 270.252C182.319 243.909 265.323 115.376 298.496 115.376C412.734 115.376 352.77 300.804 261.22 270.252ZM329.013 115.259C299.237 104.115 281.651 106.536 254.379 142.696C218.819 189.834 203.243 257.086 259.351 275.824C348.903 305.718 410.324 145.705 329.013 115.259Z" fill="black"/>
<path d="M278.653 233.082C278.653 233.082 252.18 304.519 173.702 258.873L100.89 233.082L136.826 60.9963C136.826 60.9963 209.626 29.786 251.228 48.7003C292.83 67.6145 315.53 122.453 321.196 150.819C326.874 179.184 301.341 233.082 278.653 233.082Z" fill="#BCBCD1"/>
<path d="M177.793 202.189C177.793 202.189 195.45 261.565 167.084 274.12C138.718 286.662 90.1457 295.408 53.6102 258.873C17.0865 222.338 73.7823 199.673 73.7823 199.673C73.7823 199.673 156.998 190.845 177.793 202.189Z" fill="#BCBCD1"/>
<path d="M149.721 271.11C109.894 271.11 52.8342 255.44 41.6197 238.278V238.266C40.7615 232.717 41.9958 227.686 44.3822 223.231C54.6328 233.399 67.975 240.852 83.6801 240.852C84.9849 240.852 86.3132 240.793 87.6533 240.688C124.389 237.772 177.346 230.719 173.655 200.437C175.054 200.908 176.323 201.425 177.417 201.989C177.44 202.001 177.464 202.013 177.487 202.024C177.511 202.048 177.534 202.06 177.558 202.071C177.64 202.107 177.722 202.154 177.793 202.189V202.201C177.793 202.201 177.805 202.212 177.805 202.224C177.805 202.236 177.816 202.248 177.816 202.259C177.816 202.271 177.816 202.271 177.816 202.271C177.816 202.283 177.828 202.283 177.828 202.295C177.828 202.306 177.828 202.318 177.84 202.342V202.353C177.852 202.365 177.852 202.377 177.852 202.4C177.863 202.412 177.863 202.412 177.863 202.412C177.863 202.424 177.863 202.424 177.863 202.424C177.863 202.448 177.875 202.459 177.887 202.483V202.495C177.887 202.506 177.887 202.518 177.887 202.53C177.899 202.53 177.899 202.542 177.899 202.542C177.899 202.565 177.91 202.577 177.91 202.6C177.922 202.612 177.922 202.624 177.922 202.636C177.922 202.636 177.922 202.635 177.922 202.647C177.922 202.647 177.934 202.659 177.934 202.671C177.934 202.683 177.946 202.694 177.946 202.718V202.73C179.427 207.973 190.536 249.798 175.207 268.007C168.412 270.146 159.596 271.11 149.721 271.11Z" fill="#9494B3"/>
<path d="M50.4596 134.114C48.567 136.007 21.4711 156.179 21.4711 176.974C21.4711 197.781 47.3092 243.885 87.6534 240.688C127.998 237.49 187.879 229.297 170.857 190.845C153.847 152.394 50.4596 134.114 50.4596 134.114Z" fill="#BCBCD1"/>
<path d="M151.661 216.566C123.895 216.566 89.0406 203.118 59.1351 194.454C41.8666 189.446 30.4287 179.372 22.8701 168.463C23.0464 167.934 23.2226 167.405 23.4225 166.865C23.4695 166.747 23.5166 166.641 23.5518 166.524C23.5636 166.512 23.5635 166.5 23.5635 166.488C23.5753 166.465 23.587 166.441 23.5988 166.406C23.5988 166.394 23.6106 166.382 23.6106 166.371C23.6224 166.347 23.6341 166.324 23.6341 166.3C23.6459 166.288 23.6576 166.265 23.6576 166.241C23.6693 166.23 23.6693 166.218 23.6811 166.206C23.6929 166.183 23.6929 166.159 23.7046 166.136C23.7164 166.124 23.7163 166.112 23.7163 166.1C30.264 149.62 48.9079 135.666 50.4596 134.114C50.4596 134.114 153.847 152.394 170.857 190.845C174.96 200.109 174.595 207.608 171.128 213.709C165.215 215.708 158.667 216.566 151.661 216.566Z" fill="#9494B3"/>
<path d="M286.177 76.7836C286.177 76.7836 245.868 22.5448 194.18 4.88834C142.492 -12.7564 55.5496 67.2971 41.3492 100.071C27.137 132.856 63.073 156.802 100.89 172.566C138.718 188.318 162.922 185.297 183.224 164.995C203.513 144.706 152.578 85.5767 136.191 85.5767L214.352 82.4262L286.177 76.7836Z" fill="#BCBCD1"/>
<path d="M278.653 230.707H277.008C270.989 246.565 257.929 261.941 241.342 268.265C212.212 279.362 183.283 260.483 177.969 258.591C177.499 259.331 175.101 267.971 166.12 271.945C150.497 278.857 96.317 298.218 55.2911 257.192C35.4717 237.372 47.1329 223.983 47.3092 222.796L46.0514 221.538C-4.94309 170.943 48.4495 141.073 49.1313 138.487C48.3907 136.971 34.3784 122.112 43.524 101.011C58.03 67.5438 144.208 -9.67665 193.416 7.13342C241.812 23.6614 279.864 72.387 284.108 77.9708C303.692 101.681 315.071 132.28 318.88 151.289C324.428 179.055 299.096 230.707 278.653 230.707ZM323.523 150.348C310.134 83.3901 246.385 20.2054 194.956 2.64299C142.68 -15.2015 54.3741 64.0525 39.1745 99.1303C33.5085 112.214 34.9897 124.91 43.571 136.9C27.5486 151.077 19.0965 164.913 19.0965 176.974C19.0965 188.541 26.9373 208.584 41.5021 223.689C25.9499 257.309 92.8962 309.515 168.036 276.283C173.138 274.025 177.182 270.252 180.097 265.056C227.706 289.307 264.676 271.851 280.276 235.374C304.962 233 329.084 178.161 323.523 150.348Z" fill="black"/>
<path d="M54.9148 9.97822C19.6137 47.8303 20.7304 67.9201 20.7422 67.7908C19.4844 81.3564 21.2594 92.6534 25.268 101.858C25.4443 117.01 -13.1601 67.7202 54.9148 9.97822Z" fill="black"/>
<path d="M3.7206 141.367C-0.311463 167.593 -0.334996 193.29 23.3872 208.314C29.2531 216.73 -12.3606 199.579 3.7206 141.367Z" fill="black"/>
<path d="M19.0965 176.974C19.0965 157.789 35.4716 145.176 45.1109 135.572C47.0388 133.632 50.154 137.041 46.9801 140.203C32.8267 154.357 23.8339 165.407 23.8339 176.974C23.8339 197.111 49.0961 241.393 87.4653 238.325C126.681 235.221 184.541 227.604 168.694 191.809C167.037 188.059 164.38 184.309 160.807 180.677C158.597 178.443 161.982 175.128 164.18 177.362C168.165 181.394 171.139 185.614 173.032 189.881C190.853 230.155 131.947 239.559 87.8414 243.05C47.8382 246.201 19.0965 201.402 19.0965 176.974Z" fill="black"/>
<path d="M99.9847 174.752C19.5315 141.226 9.8216 99.248 102.312 31.6551C123.436 16.2204 163.557 -8.06586 194.956 2.64321C240.978 18.36 290.538 75.7374 287.587 78.688C284.319 81.956 251.792 27.0706 193.416 7.13364C164.063 -2.89362 125.482 20.5934 105.11 35.4873C14.5354 101.681 25.2328 138.475 101.807 170.379C137.766 185.367 161.618 183.251 181.543 163.326C199.67 145.199 151.414 87.9513 136.191 87.9513C133.052 87.9513 133.052 83.2021 136.191 83.2021C154.083 83.2021 207.205 144.365 184.893 166.676C160.43 191.151 132.288 188.212 99.9847 174.752Z" fill="black"/>
<path d="M51.9409 260.542C32.145 240.758 39.304 220.751 44.394 222.996C50.0953 225.512 33.873 235.786 55.2912 257.192C96.3171 298.218 150.497 278.857 166.12 271.945C181.202 265.28 189.948 231.295 166.261 220.998C163.381 219.74 165.274 215.402 168.154 216.648C195.649 228.603 186.903 267.936 168.036 276.283C128.926 293.575 83.833 292.446 51.9409 260.542Z" fill="black"/>
<path d="M203.008 67.9199C203.008 67.9199 126.105 112.049 115.396 134.114C104.675 156.179 123.589 231.189 144.384 238.125C165.191 245.06 196.954 245.566 211.448 210.9C225.943 176.233 191.664 145.869 191.664 145.869L264.782 154.051C264.782 154.051 271.718 62.7828 203.008 67.9199Z" fill="#BCBCD1"/>
<path d="M264.794 153.957C238.344 150.16 211.73 146.351 184.834 142.496C185.328 143.307 238.438 187.765 197.859 227.428C183.929 241.123 163.639 241.992 145.09 235.856C129.291 229.967 117.712 186.437 115.314 164.255C112.175 134.196 112.351 125.298 204.207 69.9656H204.219C206.922 68.3903 204.536 64.2877 201.832 65.8746C182.718 76.9951 159.984 91.372 142.363 104.573C114.749 125.451 114.256 131.975 113.327 132.95C102.289 155.591 119.945 221.973 137.79 236.879L139.047 237.913C148.593 244.532 196.566 256.087 214.246 210.194C224.755 182.981 206.734 158.6 197.8 148.738L264.77 154.157L264.876 154.063L264.794 153.957Z" fill="black"/>
<path d="M282.721 230.061C292.336 230.931 282.356 249.516 234.747 208.396C234.183 207.902 234.888 207.032 235.476 207.479C244.363 214.18 272.188 233.564 282.721 230.061Z" fill="black"/>
<path d="M127.774 147.527C127.774 147.527 130.784 209.854 151.297 216.566C171.81 223.278 191.899 228.544 190.395 194.454C188.89 160.364 141.258 116.705 127.774 147.527Z" fill="#C9C9DA"/>
<path d="M159.126 18.3717C159.126 18.3717 58.5707 72.6577 58.5707 98.9896C58.5707 125.321 201.151 35.3346 190.477 24.6608C179.791 13.9752 159.126 18.3717 159.126 18.3717Z" fill="#C9C9DA"/>
</svg>
