<svg width="316" height="506" viewBox="0 0 316 506" fill="none" xmlns="http://www.w3.org/2000/svg">
<path d="M71.7461 402.494C71.7461 402.494 50.6461 484.828 116.585 494.774C182.522 504.734 208.895 511.934 228.682 457.921C248.455 403.908 71.7461 402.494 71.7461 402.494Z" fill="#BCBCD1"/>
<path d="M168.829 501.574H168.815C168.829 501.574 168.829 501.574 168.829 501.574ZM228.682 457.921C228.682 457.894 228.695 457.881 228.709 457.854C228.695 457.868 228.682 457.894 228.682 457.921ZM228.802 457.574C228.802 457.561 228.815 457.561 228.815 457.548C228.815 457.548 228.802 457.561 228.802 457.574ZM228.909 457.268C228.909 457.268 228.922 457.254 228.922 457.241C228.909 457.254 228.909 457.254 228.909 457.268ZM228.962 457.121C228.962 457.108 228.962 457.108 228.962 457.094C228.962 457.094 228.962 457.108 228.962 457.121ZM228.989 457.041C228.989 457.041 228.989 457.028 228.989 457.014C228.989 457.028 228.989 457.028 228.989 457.041ZM229.015 456.961V456.948C229.015 456.961 229.015 456.961 229.015 456.961ZM229.255 456.161L229.269 456.148C229.255 456.148 229.255 456.161 229.255 456.161Z" fill="#C9C9DA"/>
<path d="M174.975 501.734C172.989 501.734 170.949 501.681 168.829 501.574C168.829 501.574 168.829 501.574 168.816 501.574C168.776 501.574 168.722 501.574 168.669 501.561H168.655C168.535 501.561 168.415 501.548 168.295 501.548C168.255 501.548 168.215 501.548 168.175 501.534C168.162 501.534 168.149 501.534 168.122 501.534C168.082 501.534 168.029 501.534 167.989 501.534C167.975 501.534 167.962 501.534 167.949 501.534C163.709 501.294 159.202 500.854 154.402 500.294C176.842 489.094 183.749 473.014 182.495 456.068C195.322 456.614 206.789 456.748 214.909 456.748C215.882 456.828 216.829 456.868 217.775 456.868C222.069 456.868 226.015 456.041 229.669 454.601C229.575 455.014 229.469 455.441 229.349 455.854C229.349 455.868 229.349 455.868 229.349 455.868C229.336 455.908 229.322 455.961 229.309 456.001V456.014C229.295 456.028 229.296 456.054 229.282 456.081C229.282 456.108 229.269 456.121 229.269 456.148L229.255 456.161C229.255 456.188 229.242 456.201 229.242 456.228C229.229 456.254 229.229 456.281 229.216 456.294C229.162 456.494 229.095 456.681 229.042 456.881C229.042 456.881 229.042 456.881 229.029 456.894C229.029 456.908 229.016 456.934 229.016 456.948V456.961C229.002 456.974 229.002 457.001 228.989 457.014C228.989 457.028 228.989 457.041 228.989 457.041C228.975 457.054 228.975 457.081 228.962 457.094C228.962 457.108 228.962 457.108 228.962 457.121C228.949 457.134 228.949 457.148 228.949 457.161C228.936 457.174 228.935 457.188 228.935 457.188C228.935 457.214 228.922 457.228 228.922 457.241C228.922 457.254 228.909 457.268 228.909 457.268C228.909 457.281 228.895 457.308 228.895 457.321C228.895 457.321 228.882 457.334 228.882 457.348C228.882 457.361 228.869 457.374 228.869 457.388C228.869 457.401 228.855 457.414 228.855 457.414C228.855 457.441 228.842 457.454 228.842 457.468C228.842 457.481 228.829 457.494 228.829 457.494C228.829 457.521 228.816 457.534 228.816 457.548C228.816 457.561 228.802 457.561 228.802 457.574C228.802 457.588 228.789 457.601 228.789 457.614C228.789 457.628 228.775 457.641 228.775 457.654C228.775 457.668 228.762 457.681 228.762 457.694C228.762 457.708 228.749 457.721 228.749 457.734C228.749 457.748 228.735 457.761 228.735 457.774C228.722 457.788 228.722 457.801 228.722 457.814C228.709 457.828 228.709 457.841 228.709 457.854C228.695 457.881 228.682 457.894 228.682 457.921C216.176 492.054 201.055 501.734 174.975 501.734Z" fill="#9494B3"/>
<path d="M225.269 456.681C206.455 508.041 182.642 501.094 117.126 491.188C75.7288 484.948 66.5593 446.454 74.6527 406.174C118.369 407.134 240.335 415.561 225.269 456.681ZM68.934 398.841C57.41 444.961 68.1793 491.148 116.042 498.374C182.122 508.334 211.215 516.188 232.095 459.174C250.589 408.641 122.826 399.428 68.934 398.841Z" fill="black"/>
<path d="M214.909 456.748C186.749 456.748 118.441 455.161 92.6474 440.521C74.718 430.334 57.3475 399.841 50.4048 366.347C43.9901 335.401 55.5688 205.894 46.3608 165.374C36.7128 122.921 12.5408 56.9475 3.54882 41.0809C0.683488 36.0275 -1.42188 31.0142 1.18346 24.7209C8.83812 6.24089 40.1341 -7.46577 70.2794 12.3876C108.605 37.6142 116.438 89.6275 116.438 102.174C116.467 109.921 133.463 187.774 142.169 207.361C148.633 187.761 156.215 121.974 162.989 99.5876C171.389 71.7876 179.415 19.8942 192.269 7.04088C206.309 -7.01245 247.162 0.147521 260.895 26.9475C273.855 52.2009 253.402 94.8676 251.095 99.5342C235.642 148.934 220.589 203.948 221.415 212.801C228.669 221.454 257.855 275.001 276.069 298.694C296.389 325.094 277.229 390.894 264.429 414.148C256.322 428.868 241.989 459.001 214.909 456.748Z" fill="black"/>
<path d="M94.9341 436.494C77.2008 426.428 61.1901 395.548 54.9408 365.401C48.6914 335.254 60.2514 205.588 50.8794 164.348C41.5048 123.108 17.8101 54.3343 6.82345 37.8143C-2.71788 23.4677 29.2862 -9.05229 67.7328 16.2544C106.181 41.561 111.805 94.0544 111.805 102.174C111.805 110.294 134.301 215.281 142.426 215.281C150.549 215.281 159.296 127.788 167.416 100.921C175.549 74.0544 183.975 21.881 195.535 10.321C207.095 -1.25229 244.282 4.69438 256.775 29.0677C269.282 53.4277 246.775 97.801 246.775 97.801C246.775 97.801 211.789 209.654 217.415 215.281C223.029 220.908 253.655 277.148 272.402 301.508C291.149 325.881 272.349 388.801 261.149 410.868C247.909 436.988 232.402 452.108 214.909 452.108C197.415 452.108 121.237 451.428 94.9341 436.494Z" fill="#BCBCD1"/>
<path d="M230.122 368.908C228.122 368.908 226.455 368.708 225.282 368.308C216.509 365.321 212.002 351.108 212.002 351.108C212.002 351.108 208.895 352.268 203.362 352.268C198.935 352.268 192.975 351.521 185.829 348.868C169.749 342.881 166.389 311.028 166.389 311.028L178.749 302.068C179.149 308.628 180.735 315.521 183.135 321.334C188.922 335.308 199.135 343.321 211.162 343.321C214.015 343.321 216.802 342.921 219.549 342.161C224.495 351.774 237.149 358.441 252.362 358.441C256.042 358.441 259.829 358.054 263.629 357.294C267.215 356.574 270.815 355.121 274.349 353.081C264.055 362.721 241.482 368.908 230.122 368.908Z" fill="#9494B3"/>
<path d="M252.362 358.441C232.709 358.441 217.309 347.294 217.309 333.068C217.309 319.961 243.242 250.294 246.189 242.401L247.095 240.001L249.602 239.481C250.122 239.374 262.495 236.894 274.762 236.894C282.349 236.894 288.389 237.868 292.722 239.788C309.069 247.054 315.149 258.748 315.149 282.921C315.149 309.708 289.189 352.188 263.629 357.294C259.829 358.054 256.042 358.441 252.362 358.441Z" fill="black"/>
<path d="M250.535 244.028C250.535 244.028 278.175 238.401 290.829 244.028C303.495 249.641 310.522 258.081 310.522 282.921C310.522 307.761 286.149 348.068 262.709 352.761C239.282 357.441 221.935 345.721 221.935 333.068C221.935 320.414 250.535 244.028 250.535 244.028Z" fill="#BCBCD1"/>
<path d="M227.175 344.708C225.909 343.428 224.842 342.041 224.016 340.588C224.842 342.041 225.909 343.414 227.175 344.708Z" fill="black"/>
<path d="M252.362 353.814C241.362 353.801 232.455 350.068 227.175 344.708C225.909 343.414 224.842 342.041 224.016 340.588C247.336 330.601 265.989 294.988 276.509 261.334C278.695 254.334 279.922 247.788 280.335 241.734C284.282 242.041 287.949 242.734 290.829 244.028C290.829 266.294 275.282 322.361 253.762 353.788C253.282 353.801 252.829 353.814 252.362 353.814Z" fill="#9494B3"/>
<path d="M211.162 343.321C199.135 343.321 188.922 335.307 183.135 321.334C177.642 308.081 176.415 289.094 183.989 281.521C191.655 273.854 210.509 195.881 221.949 194.267C226.655 193.601 233.455 191.254 240.762 191.254C245.442 191.254 249.722 191.921 253.482 193.254C272.695 200.067 288.095 224.281 276.509 261.334C264.122 300.974 240.455 343.321 211.162 343.321Z" fill="black"/>
<path d="M217.442 205.028C218.242 201.908 220.642 199.481 223.722 198.574C230.402 196.601 242.175 194.161 251.935 197.628C266.469 202.788 283.802 222.468 272.096 259.961C260.376 297.454 237.402 338.694 211.162 338.694C184.922 338.694 177.882 294.174 187.256 284.801C195.456 276.601 213.109 221.814 217.442 205.028Z" fill="#BCBCD1"/>
<path d="M184.296 309.054C184.296 309.054 184.296 309.054 184.282 309.041L184.296 309.054ZM184.256 308.841C184.256 308.841 184.242 308.841 184.242 308.828L184.256 308.841ZM184.069 307.801C184.069 307.801 184.056 307.788 184.056 307.774C184.056 307.788 184.055 307.801 184.069 307.801ZM183.949 307.094C183.949 307.068 183.935 307.028 183.935 307.001C183.935 307.041 183.949 307.068 183.949 307.094ZM183.762 305.828C183.762 305.801 183.762 305.774 183.762 305.761C183.762 305.788 183.762 305.801 183.762 305.828ZM183.669 305.108C183.669 305.081 183.669 305.054 183.669 305.041C183.669 305.068 183.669 305.081 183.669 305.108ZM183.616 304.601C183.602 304.468 183.589 304.334 183.575 304.188C183.589 304.321 183.602 304.468 183.616 304.601ZM183.575 304.174C183.362 302.201 183.282 300.254 183.309 298.414C183.282 300.254 183.375 302.201 183.575 304.174ZM183.482 295.334C183.482 295.321 183.482 295.307 183.482 295.281C183.482 295.294 183.482 295.321 183.482 295.334ZM183.575 294.428C183.575 294.414 183.575 294.414 183.575 294.401C183.575 294.414 183.575 294.428 183.575 294.428ZM183.616 294.081C183.616 294.081 183.616 294.081 183.616 294.068V294.081ZM183.816 292.814V292.801C183.816 292.814 183.816 292.814 183.816 292.814ZM187.216 284.841C187.216 284.841 187.229 284.841 187.229 284.828C187.216 284.841 187.216 284.841 187.216 284.841Z" fill="black"/>
<path d="M193.829 330.268C188.922 324.574 185.762 316.721 184.296 309.054L184.282 309.041C184.269 308.974 184.269 308.908 184.256 308.841L184.242 308.828C184.242 308.801 184.229 308.761 184.229 308.734C184.216 308.694 184.216 308.668 184.216 308.628C184.216 308.628 184.215 308.628 184.202 308.628C184.202 308.588 184.202 308.561 184.189 308.521C184.189 308.481 184.175 308.454 184.175 308.414C184.162 308.388 184.162 308.348 184.149 308.321C184.149 308.308 184.149 308.308 184.149 308.308C184.136 308.241 184.122 308.174 184.122 308.108C184.109 308.108 184.109 308.094 184.109 308.094C184.109 308.054 184.109 308.028 184.096 308.001C184.096 308.001 184.096 308.001 184.096 307.988C184.096 307.961 184.082 307.934 184.082 307.908C184.082 307.894 184.082 307.881 184.069 307.868C184.069 307.854 184.069 307.828 184.069 307.801C184.055 307.801 184.056 307.788 184.056 307.774C184.056 307.748 184.055 307.721 184.042 307.694C184.042 307.681 184.042 307.668 184.042 307.654C184.029 307.641 184.029 307.614 184.029 307.588C184.029 307.588 184.029 307.574 184.029 307.561C184.016 307.534 184.016 307.508 184.016 307.481C184.002 307.468 184.002 307.454 184.002 307.441C184.002 307.428 184.002 307.414 183.989 307.388C183.989 307.374 183.989 307.361 183.989 307.348C183.989 307.334 183.989 307.308 183.975 307.294C183.975 307.268 183.976 307.254 183.962 307.228C183.962 307.214 183.962 307.188 183.962 307.174C183.962 307.161 183.962 307.148 183.949 307.134C183.949 307.121 183.949 307.108 183.949 307.094C183.949 307.068 183.935 307.041 183.935 307.001C183.935 306.988 183.935 306.988 183.935 306.974C183.922 306.948 183.922 306.934 183.922 306.921C183.922 306.908 183.922 306.894 183.909 306.881C183.909 306.854 183.909 306.828 183.896 306.801C183.896 306.788 183.896 306.761 183.896 306.748C183.896 306.734 183.896 306.721 183.882 306.708C183.882 306.694 183.882 306.681 183.882 306.668C183.869 306.614 183.869 306.548 183.856 306.481V306.468C183.842 306.401 183.829 306.334 183.829 306.268V306.254C183.816 306.228 183.816 306.201 183.816 306.188C183.802 306.134 183.802 306.094 183.789 306.054C183.789 306.041 183.789 306.041 183.789 306.041C183.789 305.974 183.776 305.908 183.762 305.828C183.762 305.801 183.762 305.788 183.762 305.761C183.749 305.761 183.749 305.748 183.749 305.748C183.749 305.681 183.736 305.614 183.722 305.548C183.722 305.534 183.722 305.534 183.722 305.534C183.722 305.468 183.709 305.401 183.696 305.334C183.696 305.321 183.696 305.321 183.696 305.321C183.696 305.254 183.682 305.188 183.669 305.121C183.669 305.108 183.669 305.108 183.669 305.108C183.669 305.081 183.669 305.068 183.669 305.041C183.669 305.041 183.669 305.041 183.669 305.028C183.655 304.988 183.656 304.948 183.656 304.908C183.656 304.894 183.655 304.894 183.642 304.894C183.642 304.801 183.629 304.708 183.616 304.614C183.616 304.614 183.616 304.614 183.616 304.601C183.602 304.468 183.589 304.321 183.575 304.188C183.575 304.188 183.575 304.188 183.575 304.174C183.375 302.201 183.282 300.254 183.309 298.414C183.309 298.414 183.309 298.414 183.309 298.401C183.322 297.708 183.349 297.028 183.402 296.348C183.402 296.348 183.402 296.348 183.402 296.334C183.402 296.281 183.402 296.214 183.416 296.161C183.416 296.134 183.416 296.108 183.416 296.094C183.416 296.094 183.416 296.094 183.416 296.081C183.416 296.054 183.416 296.014 183.429 295.974V295.961C183.429 295.948 183.429 295.921 183.429 295.908C183.429 295.908 183.429 295.908 183.429 295.894C183.429 295.868 183.429 295.828 183.442 295.788C183.442 295.788 183.442 295.788 183.442 295.774C183.442 295.761 183.442 295.748 183.442 295.721C183.442 295.721 183.442 295.708 183.442 295.694C183.442 295.668 183.456 295.641 183.456 295.614C183.456 295.614 183.456 295.601 183.456 295.588C183.456 295.574 183.456 295.561 183.456 295.548C183.456 295.534 183.456 295.521 183.456 295.521C183.469 295.468 183.469 295.414 183.469 295.361C183.469 295.348 183.482 295.348 183.482 295.334C183.482 295.321 183.482 295.294 183.482 295.281V295.268C183.482 295.228 183.496 295.201 183.496 295.174C183.496 295.161 183.496 295.161 183.496 295.148C183.496 295.134 183.496 295.121 183.496 295.108C183.496 295.094 183.495 295.081 183.509 295.068C183.509 295.054 183.509 295.028 183.509 295.014C183.509 295.001 183.509 294.974 183.509 294.961C183.509 294.948 183.522 294.934 183.522 294.934C183.522 294.921 183.522 294.908 183.522 294.894C183.522 294.868 183.522 294.854 183.522 294.828C183.536 294.814 183.535 294.801 183.535 294.788C183.535 294.774 183.535 294.761 183.535 294.748C183.535 294.734 183.535 294.721 183.535 294.708C183.549 294.694 183.549 294.681 183.549 294.668C183.549 294.641 183.549 294.628 183.549 294.601C183.549 294.601 183.549 294.588 183.562 294.574C183.562 294.561 183.562 294.548 183.562 294.534C183.562 294.521 183.562 294.508 183.562 294.494C183.562 294.481 183.575 294.454 183.575 294.428C183.575 294.428 183.575 294.414 183.575 294.401C183.575 294.388 183.576 294.374 183.589 294.348C183.589 294.348 183.589 294.334 183.589 294.321C183.589 294.294 183.589 294.268 183.589 294.254C183.602 294.241 183.602 294.241 183.602 294.228C183.602 294.214 183.602 294.201 183.602 294.174C183.602 294.174 183.602 294.161 183.602 294.148C183.615 294.121 183.616 294.108 183.616 294.081V294.068C183.616 294.041 183.629 294.028 183.629 294.001C183.629 293.988 183.629 293.988 183.629 293.974C183.629 293.948 183.642 293.934 183.642 293.908C183.642 293.881 183.642 293.854 183.656 293.828C183.656 293.814 183.656 293.814 183.656 293.801C183.656 293.788 183.655 293.761 183.669 293.748C183.669 293.734 183.669 293.734 183.669 293.721C183.669 293.694 183.669 293.681 183.682 293.654C183.682 293.641 183.682 293.641 183.682 293.641C183.682 293.614 183.682 293.588 183.696 293.561C183.696 293.534 183.696 293.508 183.696 293.481L183.709 293.468C183.709 293.441 183.709 293.428 183.709 293.401C183.709 293.401 183.709 293.388 183.722 293.388C183.722 293.361 183.722 293.334 183.722 293.308C183.736 293.281 183.735 293.254 183.735 293.228C183.735 293.228 183.736 293.228 183.749 293.214C183.749 293.161 183.762 293.108 183.762 293.054C183.762 293.054 183.762 293.054 183.775 293.054C183.789 292.974 183.802 292.894 183.816 292.814C183.816 292.814 183.816 292.814 183.816 292.801C183.816 292.748 183.829 292.694 183.842 292.641C183.855 292.588 183.855 292.534 183.869 292.481C183.882 292.428 183.896 292.374 183.896 292.321C184.496 289.201 185.549 286.668 187.029 285.041C187.042 285.028 187.055 285.014 187.069 285.001C187.082 284.988 187.095 284.974 187.109 284.961C187.109 284.948 187.122 284.934 187.135 284.921H187.149C187.162 284.894 187.189 284.868 187.216 284.841C187.216 284.841 187.216 284.841 187.229 284.828C187.242 284.828 187.242 284.814 187.256 284.801C195.456 276.601 213.109 221.814 217.442 205.028C218.242 201.908 220.642 199.481 223.722 198.574C223.736 198.561 223.762 198.561 223.775 198.548C223.789 198.548 223.802 198.548 223.816 198.534C223.829 198.534 223.829 198.534 223.842 198.534C224.415 198.361 225.029 198.188 225.682 198.014C225.709 198.014 225.722 198.014 225.735 198.001C225.775 198.001 225.802 197.988 225.842 197.974C225.842 197.974 225.855 197.974 225.869 197.974C225.882 197.961 225.896 197.961 225.896 197.961C225.922 197.961 225.949 197.948 225.975 197.948C225.975 197.934 225.989 197.934 225.989 197.934C228.336 197.334 231.096 196.734 234.056 196.348C234.082 196.348 234.095 196.334 234.109 196.334C234.122 196.334 234.122 196.334 234.135 196.334C234.935 196.228 235.762 196.134 236.589 196.068C241.296 207.641 246.722 224.161 245.775 236.894C244.215 258.041 217.869 321.934 193.829 330.268Z" fill="#9494B3"/>
<path d="M93.8142 433.507C92.9115 433.494 93.5422 440.721 92.6475 440.521C82.0848 438.147 63.3356 420.081 48.6996 401.427C36.5836 385.987 22.4196 360.014 23.7543 323.987C25.0116 290.068 43.2062 267.481 58.2502 254.521C76.6609 238.641 96.6969 231.401 107.52 231.401C109.485 231.401 111.234 231.641 112.72 232.107C119.472 234.214 127.389 238.214 135.77 242.441C146.485 247.841 157.562 253.428 166.042 254.921C167.789 255.241 169.722 255.388 171.936 255.388C176.136 255.388 180.589 254.841 185.296 254.268C190.069 253.694 195.002 253.094 199.749 253.094C207.429 253.094 213.242 254.667 218.042 258.041C223.429 261.827 226.042 268.067 225.429 275.627C224.176 290.894 210.469 307.747 192.082 316.614C186.336 319.401 179.656 320.801 172.256 320.801C158.922 320.801 145.242 316.267 135.077 311.854C135.302 312.374 135.53 312.921 135.762 313.468C144.306 333.881 129.038 362.294 126.077 367.481C125.472 371.027 123.009 384.761 118.805 398.707C111.752 422.121 103.577 433.507 93.8182 433.507H93.8142Z" fill="black"/>
<path d="M142.327 369.428C142.327 369.428 142.819 333.934 131.49 315.254C122.374 300.241 121.647 299.788 121.647 299.788C121.647 299.788 162.895 325.574 190.069 312.454C217.255 299.321 228.562 271.108 215.375 261.828C202.202 252.561 181.162 262.294 165.229 259.494C149.298 256.681 126.334 241.214 111.337 236.521C96.3394 231.841 30.7261 260.894 28.3835 324.161C26.0395 387.441 78.5821 433.521 97.3275 437.734C116.074 441.961 142.327 369.428 142.327 369.428Z" fill="#BCBCD1"/>
<path d="M166.669 316.961C178.055 349.734 177.282 382.641 149.298 403.374C174.975 381.588 174.162 350.294 161.122 319.201L166.669 316.961Z" fill="black"/>
<path d="M67.7341 107.174C83.6368 111.974 104.893 107.921 112.166 92.4143L114.439 100.374C103.471 117.241 84.6741 114.534 67.7341 107.174Z" fill="black"/>
<path d="M89.4967 184.028C99.6354 181.321 119.179 174.614 126.005 166.641L130.234 170.868C121.143 178.721 100.919 182.668 89.4967 184.028Z" fill="black"/>
<path d="M201.162 87.8009C213.322 105.588 237.776 106.254 234.736 105.881C234.882 105.881 239.669 106.041 239.376 106.028C241.429 106.014 243.496 105.814 245.536 105.721L245.776 111.708C243.536 111.548 241.296 111.494 239.069 111.254C220.896 109.308 207.029 98.9875 201.162 87.8009Z" fill="black"/>
<path d="M174.935 161.534C196.495 183.494 224.095 175.868 224.309 175.881L225.282 181.788C203.162 183.428 185.709 175.201 174.935 161.534Z" fill="black"/>
<path d="M107.75 264.641C110.058 279.948 117.699 299.094 132.463 305.694L129.761 311.028C114.479 301.988 108.321 281.548 107.75 264.641Z" fill="black"/>
<path d="M67.7341 305.868C67.7341 305.868 48.9714 335.774 61.6847 373.921C74.3994 412.054 138.759 415.054 142.477 393.361C146.193 371.681 116.914 370.028 109.866 338.694C102.818 307.361 77.8634 295.734 67.7341 305.868Z" fill="#C9C9DA"/>
<path d="M120.106 264.641C120.106 264.641 115.477 286.348 142.802 294.241C170.122 302.121 213.615 288.694 200.109 275.201C186.615 261.708 182.789 275.948 154.389 270.721C126.002 265.481 120.106 257.214 120.106 264.641Z" fill="#C9C9DA"/>
<path d="M28.7794 18.3075C28.7794 18.3075 21.4821 30.6542 25.5048 51.5875C29.5275 72.5342 56.8688 110.294 77.2261 97.9608C97.5821 85.6141 87.2061 48.9742 77.2501 34.3875C67.2928 19.8142 41.1194 1.85417 28.7794 18.3075Z" fill="#C9C9DA"/>
<path d="M214.602 16.4409C214.602 16.4409 193.415 53.5343 201.162 74.7743C208.909 96.0143 234.082 91.2276 242.855 70.2809C251.642 49.3476 244.655 12.6143 214.602 16.4409Z" fill="#C9C9DA"/>
</svg>
